<?xml version="1.0" encoding="UTF-8"?>
<svg width="127px" height="33px" viewBox="0 0 127 33" version="1.1" xmlns="http://www.w3.org/2000/svg" xmlns:xlink="http://www.w3.org/1999/xlink">
    <title>carelon-logo-r</title>
    <defs>
        <rect id="path-1" x="0" y="0" width="127" height="33"></rect>
    </defs>
    <g id="0.0-Carelon-Insights-(Home)" stroke="none" stroke-width="1" fill="none" fill-rule="evenodd">
        <g id="carelon-logo-r">
            <mask id="mask-2" fill="white">
                <use xlink:href="#path-1"></use>
            </mask>
            <g id="Mask"></g>
            <g id="crl_r_h_rgb_c" mask="url(#mask-2)">
                <g transform="translate(0.000000, 4.000000)">
                    <path d="M125.802316,19.0855929 L125.802316,19.37929 L126.00735,19.37929 C126.117236,19.37929 126.217427,19.3606965 126.217427,19.230164 C126.217427,19.1045656 126.117236,19.0855929 126.00735,19.0855929 L125.802316,19.0855929 Z M127,19.466895 C127,20.045093 126.570029,20.483871 125.978339,20.483871 C125.400637,20.483871 124.951613,20.0264782 124.951613,19.466895 C124.951613,18.9023736 125.400637,18.4354839 125.978339,18.4354839 C126.556031,18.4354839 127,18.9023736 127,19.466895 Z M125.14755,19.466895 C125.14755,19.9239072 125.505599,20.3064601 125.978339,20.3064601 C126.460404,20.3064601 126.809117,19.942522 126.809117,19.466895 C126.809117,19.0000052 126.446014,18.6174523 125.978339,18.6174523 C125.505599,18.6174523 125.14755,19.0000052 125.14755,19.466895 Z M125.581802,18.9114901 L126.002055,18.9114901 C126.164548,18.9114901 126.417635,18.958218 126.417635,19.2287016 C126.417635,19.4342243 126.259804,19.5086835 126.116735,19.5272983 L126.484109,20.0033045 L126.245414,20.0033045 L125.897082,19.5367953 L125.787065,19.5367953 L125.787065,20.0033045 L125.581802,20.0033045 L125.581802,18.9114901 Z" id="Legal_Mark" fill="#5009B5" fill-rule="nonzero"></path>
                    <path d="M40.461672,9.49818773 C38.0593346,9.49818773 36.4376578,11.3669828 36.4376578,13.7259667 C36.4376578,16.0849506 38.0893831,17.9844014 40.4316267,17.9844014 C41.9030771,17.9844014 43.0740615,17.4635585 43.9749066,16.5444871 L45.8369554,19.3019747 C44.6957416,20.5886178 42.6236406,21.5076892 40.3414876,21.5076892 C36.0773728,21.5076892 32.7741935,18.0150546 32.7741935,13.7566216 C32.7741935,9.46753364 36.0773727,5.97489913 40.281397,5.97489913 C42.743825,5.97489913 44.6957416,6.83266109 45.9568684,8.18061319 L43.8549903,10.8461386 C42.9541485,9.95772257 41.8730285,9.49818773 40.461672,9.49818773 Z M57.4142481,19.4859007 C56.3631276,20.7422276 54.8916053,21.5080645 53.0297396,21.5080645 C49.2158625,21.5080645 46.122585,18.3218171 46.122585,13.7566216 C46.122585,9.31404901 49.0355745,5.97452383 53.0297396,5.97452383 C54.9216539,5.97452383 56.3931729,6.6790501 57.4142481,7.87406467 L57.4142481,6.40342585 L61.1079408,6.40342585 L61.1079408,21.0791633 L57.4142481,21.0791633 L57.4142481,19.4859007 Z M57.4142481,13.7259667 C57.4142481,11.3668677 55.8225414,9.49798255 53.6304196,9.49798255 C51.4079811,9.49798255 49.786494,11.3668677 49.786494,13.7259667 C49.786494,16.0850658 51.4079811,17.9846066 53.6304196,17.9846066 C55.8225414,17.9846066 57.4142481,16.0850658 57.4142481,13.7259667 Z M67.4130616,21.0791629 L63.749146,21.0791629 L63.749146,6.40342587 L67.4130616,6.40342587 L67.4130616,7.99668761 C68.2238002,6.77101646 69.4251668,5.97452385 70.9267311,5.97452385 C71.8877158,5.97452385 72.6684091,6.25014767 73.2390406,6.709705 L71.707431,10.2638195 C71.2269354,9.86557272 70.5060644,9.62032858 69.8155134,9.62032858 C68.3439944,9.62032858 67.4130616,10.8766546 67.4130616,12.8681627 L67.4130616,21.0791629 L67.4130616,21.0791629 Z M72.7276953,13.7566216 C72.7276953,9.46732685 75.8507499,5.97452385 79.9948798,5.97452385 C84.1092326,5.97452385 87.2322873,9.22208185 87.2322873,13.4503421 C87.2322873,13.9098995 87.202242,14.4307691 87.142413,14.6757363 L76.4814785,14.6757363 C76.8417733,16.7285567 78.3733895,18.1991959 80.5955566,18.1991959 C82.0370303,18.1991959 83.2684421,17.555705 84.1092326,16.6672452 L86.0011501,19.2102769 C84.9199778,20.4969835 82.8778208,21.5080645 80.4453236,21.5080645 C75.9709376,21.5080645 72.7276953,18.0152615 72.7276953,13.7566216 Z M76.541569,12.3166381 L83.4785041,12.3166381 C83.0581056,10.2331637 81.7668713,9.16077122 80.0549704,9.16077122 C78.22315,9.16077122 76.9619675,10.447753 76.541569,12.3166381 Z M88.7330406,0 L92.3969496,0 L92.3969496,21.0791623 L88.7330406,21.0791623 L88.7330406,11.1215271 L88.7330406,0 Z M94.0782624,13.7566216 C94.0782624,9.46732685 97.3816018,5.97452385 101.555784,5.97452385 C105.729959,5.97452385 109.06335,9.46732685 109.06335,13.7566216 C109.06335,18.0152615 105.729959,21.5080645 101.555784,21.5080645 C97.3816018,21.5080645 94.0782624,18.0152615 94.0782624,13.7566216 Z M105.369657,13.7259667 C105.369657,11.3668677 103.777951,9.49798255 101.585829,9.49798255 C99.3633936,9.49798255 97.7419032,11.3668677 97.7419032,13.7259667 C97.7419032,16.0850658 99.3633936,17.9846066 101.585829,17.9846066 C103.777951,17.9846066 105.369657,16.0850658 105.369657,13.7259667 Z M114.407761,21.0791545 L110.74412,21.0791545 L110.74412,6.40342546 L114.407761,6.40342546 L114.407761,7.84340814 C115.308635,6.64839396 116.690012,5.97452385 118.461742,5.97452385 C121.795133,5.97452385 123.927419,8.36427693 123.927419,12.1940127 L123.927419,21.0791545 L120.263779,21.0791545 L120.263779,12.7455364 C120.263779,10.7540292 119.122516,9.49798006 117.350799,9.49798006 C115.518978,9.49798006 114.407761,10.7540292 114.407761,12.7455364 L114.407761,21.0791545 L114.407761,21.0791545 Z" id="Wordmark" fill="#5009B5" fill-rule="nonzero"></path>
                    <g id="Symbol" stroke-width="1" fill="none" fill-rule="evenodd">
                        <path d="M6.67195006,0 C2.98712785,0 0,2.98728952 0,6.67229498 C0,10.3573004 2.98712785,13.3422668 6.67195006,13.3422668 C7.02160247,13.3422668 7.44411037,13.3117827 7.77761697,13.254209 L8.01483232,13.8250936 L6.67806623,17.0708 C7.12009234,17.0714549 7.56953203,17.1476325 8.00889951,17.3075548 C8.32062216,17.4210207 8.60911202,17.5700722 8.87152466,17.7483587 L10.4869311,13.8250936 L8.88083643,9.89775364 C7.87601598,10.5847031 6.56604704,10.7937685 5.3350137,10.3456825 C3.30635595,9.60728563 2.26038434,7.36405122 2.99874506,5.33529215 C3.73711847,3.3065466 5.98024132,2.26050988 8.0088862,2.99892042 C9.59817607,3.57739431 10.5842944,5.07945445 10.5818977,6.67842437 L13.2510679,7.77780795 C13.3110787,7.41805316 13.3438999,7.0490901 13.3438999,6.67229478 C13.3438999,2.98728952 10.3567717,0 6.67195006,0 Z" id="Purple" fill="#5009B5" fill-rule="nonzero"></path>
                        <path d="M20.9812618,4.95697132e-06 C17.2964394,4.95697132e-06 14.3092978,2.98729447 14.3092978,6.67229993 C14.3092978,7.02196973 14.3418874,7.4441794 14.3997847,7.7780161 L13.8268421,8.01500012 L10.5818979,6.67849499 C10.58123,7.1205169 10.50507,7.56995272 10.3451548,8.00931587 C10.2317601,8.32088456 10.0828077,8.60923079 9.90466105,8.8715386 L13.8268421,10.4872218 L17.7559627,8.88128307 C17.0690474,7.87641264 16.8599924,6.56639164 17.3080562,5.33529752 C18.0464171,3.30653847 20.2895268,2.26050194 22.3181842,2.99891226 C24.3468416,3.7373097 25.3928267,5.98054371 24.6544527,8.00928947 C24.0760077,9.59865838 22.5740223,10.5848389 20.9751325,10.582442 L19.8751594,13.2517318 C20.2348971,13.3117588 20.6044852,13.3445816 20.9812618,13.3445816 C24.6660842,13.3445816 27.6532258,10.3572923 27.6532258,6.67229974 C27.6532258,2.98729443 24.6660842,4.95697132e-06 20.9812618,4.95697132e-06 Z" id="Cyan" fill="#44B8F3" fill-rule="nonzero"></path>
                        <path d="M13.8268421,17.165864 L9.89726141,18.7719452 C10.5841767,19.7768042 10.7932186,21.0868501 10.345168,22.3179451 C9.60679477,24.3466902 7.363685,25.3927274 5.33502681,24.6543166 C3.30636906,23.9159206 2.26038434,21.6726862 2.99875817,19.6439263 C3.57721641,18.0545705 5.07920184,17.0683901 6.67809224,17.0708 L7.77740806,14.4014979 C7.41767116,14.3414841 7.04873953,14.307868 6.67194987,14.307868 C2.98714096,14.307868 0,17.2959374 0,20.98093 C0,24.665934 2.98714096,27.6532258 6.67195006,27.6532258 C10.3567716,27.6532258 13.3438928,24.665934 13.3438928,20.98093 C13.3438928,20.6312724 13.3141599,20.2286982 13.2523654,19.8752228 L13.8268421,19.6382289 L17.0713262,20.9748659 C17.071981,20.5328047 17.1481418,20.0833418 17.3080692,19.6439263 C17.421464,19.3323576 17.5704164,19.0439991 17.748563,18.7816913 L13.8268421,17.165864 Z" id="Light_Purple" fill="#794CFF" fill-rule="nonzero"></path>
                        <path d="M20.9812618,14.3078745 C20.6316216,14.3078745 20.2131418,14.3406164 19.875161,14.3991666 L19.6386275,13.825683 L20.9750539,10.5824373 C20.533054,10.5817693 20.0836659,10.5055925 19.6443246,10.3456824 C19.3326012,10.2322165 19.0441129,10.0831651 18.7817003,9.9048655 L17.1663987,13.825683 L18.7723869,17.7554705 C19.7771959,17.068521 21.0871767,16.8594557 22.3182104,17.3075417 C24.3468547,18.0459393 25.3928398,20.2891738 24.6544658,22.317932 C23.9161065,24.3466771 21.6729836,25.3927143 19.6443377,24.6543035 C18.0550479,24.0758298 17.0689295,22.5737566 17.0713262,20.9748004 L14.4021569,19.8754062 C14.3421461,20.2351618 14.3092962,20.6041347 14.3092962,20.98093 C14.3092962,24.665934 17.2964525,27.6532258 20.9812618,27.6532258 C24.6660973,27.6532258 27.6532258,24.665934 27.6532258,20.98093 C27.6532258,17.295926 24.6660973,14.3078745 20.9812618,14.3078745 Z" id="Turquoise" fill="#00BBBA" fill-rule="nonzero"></path>
                    </g>
                </g>
            </g>
        </g>
    </g>
</svg>